<svg fill="none" height="48" viewBox="0 0 320 48" width="320" xmlns="http://www.w3.org/2000/svg" xmlns:xlink="http://www.w3.org/1999/xlink"><linearGradient id="a"><stop offset="0" stop-color="#c26ab5"/><stop offset="1" stop-color="#599cc9"/></linearGradient><linearGradient id="b" gradientUnits="userSpaceOnUse" x1="-13.1348" x2="320.469" xlink:href="#a" y1="31.7338" y2="-36.1775"/><linearGradient id="c" gradientUnits="userSpaceOnUse" x1="-11.4327" x2="322.859" xlink:href="#a" y1="45.9191" y2="-22.1479"/><linearGradient id="d" gradientUnits="userSpaceOnUse" x1="-8.57474" x2="323.731" xlink:href="#a" y1="60.7082" y2="-7.01536"/><linearGradient id="e" gradientUnits="userSpaceOnUse" x1="-4.73828" x2="326.15" xlink:href="#a" y1="77.8717" y2="10.5129"/><linearGradient id="f" gradientUnits="userSpaceOnUse" x1="-2.57773" x2="328.502" xlink:href="#a" y1="89.948" y2="22.5388"/><clipPath id="g"><path d="m0 0h320v48h-320z"/></clipPath><g clip-path="url(#g)"><path d="m16.8725-.0620686c-6.5914.0478054-10.04111 1.8753886-12.68811 4.2325686-2.91048 2.76958-4.077781 7.2755-4.31679 11.2215.1545675 12.7061 10.289 14.7029 13.4185 14.7159l-13.060428 17.7634 8.322358-.0782 15.62627-22.226.0212 22.291 6.9238-.1216.0021-47.7769857zm-10.08109 15.3324686c-.09339-3.8722 2.73593-8.74712 10.39349-8.67773l7.2562-.19541-.1411 18.08024-4.7916.356c-2.7971-.0868-12.91929-.3168-12.71699-9.5631z" fill="url(#b)"/><path d="m75.3218.071459-.0891 6.401771 18.414-.18715-.2351 14.23432-18.0808.1133-.0891 6.4017 18.4139-.1871-.1659 14.5736-18.414.1871-.0891 6.4018 25.3524-.309.002-47.865381z" fill="url(#c)"/><path d="m145.886.0439092.066 47.8778908 22.817-.1297.088-6.3584-16.25.0821.176-41.5928717z" fill="url(#d)"/><path d="m226.859.126966-17.831 47.835934 6.868-.1206 5.383-14.1829 16.907.1075 4.918 14.002 7.198-.1938-17.235-47.422348zm2.835 8.848094 6.136 18.29464-12.018.2111z" fill="url(#e)"/><path d="m312.201.0577324-10.286 22.2997676-10.067-22.3469938-7.531.2671168 14.086 30.233877.053 17.1953 6.872-.1206-.053-17.1954 14.526-30.264204z" fill="url(#f)"/></g></svg>